:SAMPLES-PER-SECOND 30
:FULLY-SPECIFIED
:DEGREES
16
root  74.3074 40.4793 -31.9243 175.514 -84.9604 -177.394
RightUpLeg  -0.350628 -7.31775 -3.76766
RightLeg  6.1357 -5.21078 2.71887
RightFoot  -3.92435 -0.0206074 -0.127579
RightToes  -5.8209e-011 0 -3.6325e-017
Spine  -0.138693 -0.360537 0.224738
Spine1  10.0548 -0.715308 1.12521
HEad  -3.76041 1.732 -3.60705
LeftShoulder1  4.13495 -7.55262 -31.3398
LeftArm  -16.8037 21.0309 -9.92299
LeftForeArm  24.0504 -26.6147 -4.42839
LeftHand  -0.244104 0.0205437 5.32207
RightShoulder  3.16126 6.37538 25.9139
RightArm  -9.4655 -12.6436 11.5115
RightForeArm  -13.1787 22.4846 5.53511
RightHand  -0.913629 1.09413 -17.1687
LeftUpLeg  1.4784 5.50407 2.70592
LeftLeg  3.30585 11.1304 -3.92823
LeftFoot  -3.20679 -0.192472 2.97854
LeftToes  5.72949e-011 -2.03295e-011 6.54899e-012
17
root  74.2454 40.4642 -31.9831 175.856 -84.6967 -177.819
RightUpLeg  -0.316193 -7.38212 -3.72644
RightLeg  6.56259 -5.03325 2.57106
RightFoot  -4.8383 -0.076648 0.748477
RightToes  -5.8209e-011 0 -3.6325e-017
Spine  -0.518461 -0.262355 0.939332
Spine1  11.2412 -0.540334 0.739606
HEad  -3.03516 1.64385 -4.11031
LeftShoulder1  4.8817 -8.22949 -35.5097
LeftArm  -17.0598 20.4491 -13.947
LeftForeArm  24.2433 -27.3293 -4.57673
LeftHand  -0.244104 0.0205437 5.32207
RightShoulder  3.97298 7.53309 30.0414
RightArm  -6.58211 -13.2351 14.3242
RightForeArm  -10.2821 23.2158 5.49086
RightHand  -0.588653 -0.0451847 -12.9241
LeftUpLeg  1.59467 5.60293 2.8207
LeftLeg  3.60572 11.168 -3.88776
LeftFoot  -3.59003 -0.162147 2.71179
LeftToes  5.72949e-011 -2.03295e-011 6.54899e-012
18
root  74.1531 40.4451 -32.073 175.492 -84.5089 -177.536
RightUpLeg  -0.246933 -7.32749 -3.51574
RightLeg  6.97002 -4.95055 2.36503
RightFoot  -5.63143 -0.106357 1.22765
RightToes  -5.8209e-011 0 -3.6325e-017
Spine  -0.506404 -0.0904147 1.56205
Spine1  11.6881 -0.327902 0.556556
HEad  -1.80989 1.54804 -4.63124
LeftShoulder1  5.90186 -9.30961 -39.7602
LeftArm  -15.7385 19.7264 -17.7281
LeftForeArm  23.6633 -26.0839 -4.33118
LeftHand  -0.244104 0.0205437 5.32207
RightShoulder  4.75362 8.33147 34.2166
RightArm  -4.35268 -13.6699 17.3039
RightForeArm  -8.09079 22.4091 5.32864
RightHand  -0.244879 -2.37598 -8.41984
LeftUpLeg  1.77244 5.72893 3.04741
LeftLeg  3.86854 11.0963 -3.82924
LeftFoot  -3.98704 -0.122212 2.27588
LeftToes  5.72949e-011 -2.03295e-011 6.54899e-012
19
root  74.0382 40.4276 -32.1928 176.085 -84.4013 -178.176
RightUpLeg  -0.225356 -7.39384 -3.36695
RightLeg  7.4394 -4.73971 2.21788
RightFoot  -6.2603 -0.100178 1.16116
RightToes  -5.8209e-011 0 -3.6325e-017
Spine  -0.266619 0.140182 1.93147
Spine1  11.6093 -0.0596468 0.465379
HEad  0.121845 1.53335 -4.99844
LeftShoulder1  7.1947 -10.7493 -43.9552
LeftArm  -12.9256 19.053 -20.7715
LeftForeArm  21.9801 -23.3445 -3.88101
LeftHand  -0.244104 0.0205437 5.32207
RightShoulder  5.47625 8.84983 38.2845
RightArm  -3.60918 -14.4108 20.1745
RightForeArm  -4.01958 20.8784 5.19199
RightHand  -0.0218483 -5.19028 -2.16095
LeftUpLeg  1.99868 5.77698 3.18957
LeftLeg  3.99747 11.1181 -3.75449
LeftFoot  -4.3043 -0.089303 1.87544
LeftToes  5.72949e-011 -2.03295e-011 6.54899e-012
20
root  73.8959 40.4137 -32.3447 177.959 -84.4609 -179.939
RightUpLeg  -0.311999 -7.62943 -3.34443
RightLeg  7.95211 -4.5731 2.15162
RightFoot  -6.9693 -0.0868408 0.994109
RightToes  -5.8209e-011 0 -3.6325e-017
Spine  -1.02276 -0.144041 1.74011
Spine1  13.0163 -0.487553 0.852462
HEad  0.668477 2.31383 -5.77133
LeftShoulder1  7.92786 -11.2388 -46.9179
LeftArm  -11.9237 18.2797 -24.7187
LeftForeArm  20.1904 -20.5807 -3.71703
LeftHand  -0.244104 0.0205437 5.32207
RightShoulder  6.01971 9.43273 40.3718
RightArm  -3.46156 -14.3236 24.9699
RightForeArm  0.424562 18.7834 5.35315
RightHand  -0.0303954 -5.659 1.55484
LeftUpLeg  2.0775 5.75628 3.21562
LeftLeg  4.10943 11.0516 -3.6784
LeftFoot  -4.61117 -0.0644199 1.56848
LeftToes  5.72949e-011 -2.03295e-011 6.54899e-012
21
root  73.7069 40.3959 -32.5318 179.794 -84.5445 178.511
RightUpLeg  -0.484933 -7.77495 -3.20274
RightLeg  8.46685 -4.54865 2.01363
RightFoot  -7.88949 -0.0833648 0.993251
RightToes  -5.8209e-011 0 -3.6325e-017
Spine  -1.64067 -0.511591 1.56738
Spine1  13.5823 -0.898549 0.894376
HEad  1.65142 3.05779 -5.9321
LeftShoulder1  8.32812 -11.4737 -48.5374
LeftArm  -12.7307 18.6875 -28.605
LeftForeArm  18.601 -18.6696 -3.8336
LeftHand  -0.244104 0.0205437 5.32207
RightShoulder  6.50009 9.77245 42.6508
RightArm  -2.38008 -14.3833 29.2053
RightForeArm  0.138749 16.6309 6.12161
RightHand  -0.0227106 -5.21162 0.963766
LeftUpLeg  2.0021 5.76126 3.30073
LeftLeg  4.29851 10.8238 -3.58015
LeftFoot  -4.97332 -0.0319392 1.11214
LeftToes  5.72949e-011 -2.03295e-011 6.54899e-012
22
root  73.4544 40.3671 -32.7403 -179.25 -84.2419 177.786
RightUpLeg  -0.567602 -7.69234 -2.85352
RightLeg  8.99907 -4.20354 1.7202
RightFoot  -8.87609 -0.0842961 1.12169
RightToes  -5.8209e-011 0 -3.6325e-017
Spine  -2.20648 -0.821043 1.50989
Spine1  14.079 -1.25569 0.915031
HEad  2.01278 3.81835 -6.27668
LeftShoulder1  8.33732 -11.3077 -49.1308
LeftArm  -14.0664 19.8453 -32.439
LeftForeArm  16.6363 -17.9151 -3.91609
LeftHand  -0.244104 0.0205437 5.32207
RightShoulder  6.70334 9.82604 43.8737
RightArm  -2.8245 -14.8751 33.151
RightForeArm  -8.75209 14.755 7.37205
RightHand  -0.0389407 -5.37235 -3.69858
LeftUpLeg  2.12019 5.80409 3.49149
LeftLeg  4.54614 10.943 -3.39545
LeftFoot  -5.41012 0.0111085 0.414307
LeftToes  5.72949e-011 -2.03295e-011 6.54899e-012
23
root  73.1488 40.3257 -32.9517 -178.382 -83.3811 176.938
RightUpLeg  -0.471851 -7.56143 -2.55472
RightLeg  9.62479 -3.14557 1.4158
RightFoot  -9.77023 -0.0834996 1.25289
RightToes  -5.8209e-011 0 -3.6325e-017
Spine  -2.52302 -0.742181 1.72791
Spine1  14.5103 -1.16407 0.786169
HEad  2.69284 4.45898 -6.66246
LeftShoulder1  8.36466 -11.2557 -49.4639
LeftArm  -14.409 21.2105 -34.8587
LeftForeArm  14.2574 -17.7016 -4.04382
LeftHand  -0.244104 0.0205437 5.32207
RightShoulder  6.64311 9.63491 44.1208
RightArm  -5.10477 -16.4489 35.5019
RightForeArm  -22.3357 14.5759 8.08894
RightHand  -0.253122 -3.27021 -11.9869
LeftUpLeg  2.54867 5.86516 3.62176
LeftLeg  5.01114 11.7243 -3.0775
LeftFoot  -6.09487 0.0520356 -0.336221
LeftToes  5.72949e-011 -2.03295e-011 6.54899e-012
